<?xml version="1.0" encoding="UTF-8"?>
<svg id="Layer_1" width="114px" height="32px" data-name="Layer 1" xmlns="http://www.w3.org/2000/svg" viewBox="0 0 0 0" preserveAspectRatio="xMidYMid meet">
  <defs>
    <style>
      .cls-1 {
        fill: #E41B12;
      }

      .cls-1, .cls-2 {
        stroke-width: 0px;
      }

      .cls-2 {
        fill: #000;
      }
    </style>
  </defs>
  <path class="cls-1" d="M383.57,435.26l-100.38,209.49h47.13v-.04c12.55-15.5,31.74-25.43,53.25-25.43s40.68,9.92,53.23,25.43v.04h47.15l-100.38-209.49ZM383.57,586.11c-10.99,0-21.51,1.93-31.26,5.48l31.26-75.59,31.26,75.59c-9.75-3.55-20.27-5.48-31.26-5.48Z"/>
  <path class="cls-2" d="M781.56,475.88h-26.01v136.04h112.37v-21.1h-86.36v-114.94Z"/>
  <path class="cls-2" d="M847.92,497h56.65v114.92h26.03v-104.76l-14.25-10.16h70.9v-21.12h-139.32v21.12Z"/>
  <path class="cls-2" d="M1037.27,497h56.67v114.92h26.03v-104.76l-14.25-10.16h70.9v-21.12h-139.34v21.12Z"/>
  <path class="cls-2" d="M1025.24,475.88h-26.03v136.04h26.03v-136.04Z"/>
  <path class="cls-2" d="M1306.69,550.08c0,9.06-1.76,16.76-5.27,23.15-3.52,6.37-8.73,11.24-15.6,14.56-6.87,3.34-15.25,5-25.12,5s-18.52-1.66-25.35-5c-6.85-3.32-12.03-8.19-15.5-14.56-3.49-6.37-5.23-14.09-5.23-23.15v-74.2h-26.03v75.15c0,13.38,2.89,24.81,8.73,34.27,5.81,9.46,14.1,16.66,24.85,21.64,10.75,4.96,23.59,7.45,38.56,7.45s27.73-2.49,38.52-7.49c10.77-5,19.06-12.2,24.85-21.64,5.77-9.42,8.67-20.83,8.67-34.21v-75.17h-26.03v74.2h-.04Z"/>
  <path class="cls-2" d="M1466.62,483.81c-11.22-5.27-24.91-7.92-41.05-7.92h-73.16v136.04h73.16c16.16,0,29.83-2.66,41.05-8.01,11.22-5.35,19.77-13.11,25.64-23.29,5.87-10.17,8.82-22.53,8.82-37.05v-.19c0-14.27-2.93-26.45-8.82-36.53-5.87-10.08-14.42-17.76-25.64-23.05ZM1474.59,543.96c0,10.25-1.95,18.84-5.85,25.78-3.9,6.95-9.6,12.2-17.11,15.79-7.51,3.59-16.76,5.37-27.76,5.37h-45.45v-93.99h45.45c11.12,0,20.45,1.81,27.96,5.43,7.51,3.61,13.19,8.9,17.01,15.83,3.84,6.95,5.75,15.48,5.75,25.6v.19Z"/>
  <path class="cls-2" d="M1541.97,552.34v39.04h94.84v20.54h-120.87v-136.04h120.87v20.56h-94.84v55.9Z"/>
  <path class="cls-2" d="M1551.45,552.34h79.04v-19.33h-68.14l-10.91,19.33Z"/>
  <path class="cls-2" d="M679.48,475.88h-30.45l-66.19,136.04h27.53l16.74-35.26,9.06-19.04,27.94-58.83h.48l27.84,58.83,9.02,19.04,16.68,35.26h27.53l-66.19-136.04Z"/>
</svg>