<?xml version="1.0" standalone="no"?>
<!DOCTYPE svg PUBLIC "-//W3C//DTD SVG 20010904//EN"
 "http://www.w3.org/TR/2001/REC-SVG-20010904/DTD/svg10.dtd">
<svg version="1.0" xmlns="http://www.w3.org/2000/svg"
 width="114.000000pt" height="32.000000pt" viewBox="0 0 114.000000 32.000000"
 preserveAspectRatio="xMidYMid meet">

<g transform="translate(0.000000,1083.000000) scale(0.100000,-0.100000)"
fill="#000000" stroke="none">
<path d="M8302 6153 c2 -31 7 -39 26 -41 20 -3 22 1 22 37 0 37 -2 41 -26 41
-23 0 -25 -3 -22 -37z"/>
<path d="M8380 6150 c0 -36 3 -40 25 -40 23 0 25 4 25 40 0 36 -2 40 -25 40
-22 0 -25 -4 -25 -40z"/>
<path d="M8225 6143 c8 -46 8 -46 34 -38 37 12 24 75 -16 75 -24 0 -25 -2 -18
-37z"/>
<path d="M8456 6148 c-9 -46 36 -71 48 -25 11 43 7 57 -18 57 -18 0 -25 -7
-30 -32z"/>
<path d="M8158 6163 c-21 -5 -21 -2 -7 -42 7 -19 18 -31 28 -31 26 0 29 7 22
42 -7 33 -15 39 -43 31z"/>
<path d="M8536 6154 c-12 -32 -6 -62 14 -67 15 -4 22 3 31 30 12 38 12 38 -17
47 -15 5 -24 2 -28 -10z"/>
<path d="M2771 6139 c-18 -6 -44 -17 -57 -26 -21 -13 -1044 -1384 -1044 -1398
0 -3 103 -5 229 -5 l228 0 343 463 c188 254 346 463 350 465 4 2 103 -122 220
-275 l212 -278 -324 -3 -323 -3 -130 -176 c-71 -96 -131 -179 -133 -184 -2 -5
237 -9 552 -9 l556 0 131 176 c71 96 132 181 135 188 3 7 -170 241 -383 521
-292 382 -397 513 -423 526 -46 24 -97 30 -139 18z"/>
<path d="M8610 6124 c-6 -14 -10 -32 -10 -40 0 -13 4 -16 31 -18 6 -1 17 13
24 30 12 30 12 32 -11 43 -22 10 -26 8 -34 -15z"/>
<path d="M8073 6133 c-10 -3 -9 -12 3 -36 21 -42 19 -40 43 -28 17 10 19 15 9
41 -9 29 -26 35 -55 23z"/>
<path d="M4098 6104 c-238 -57 -377 -257 -339 -486 29 -174 135 -297 311 -360
64 -23 71 -23 575 -26 503 -3 510 -3 532 -24 32 -30 31 -81 -2 -113 l-24 -25
-593 0 -594 0 -131 -177 -131 -178 726 -3 c792 -2 782 -3 902 55 72 35 159
123 193 195 105 222 17 479 -198 579 -113 53 -172 58 -691 59 l-471 0 -21 23
c-30 32 -29 81 3 112 l24 25 718 0 718 1 46 62 c25 34 85 115 132 180 l87 117
-857 -1 c-695 -1 -869 -3 -915 -15z"/>
<path d="M5983 5939 l-133 -180 0 -524 0 -525 185 0 185 0 0 705 0 705 -52 0
-53 -1 -132 -180z"/>
<path d="M6651 5773 l-383 -346 29 -28 c15 -15 188 -176 383 -358 l355 -331
240 0 240 0 -35 34 c-19 18 -177 165 -350 326 -173 161 -330 307 -348 325
l-33 32 348 314 c191 173 364 329 383 347 l35 31 -240 1 -240 0 -384 -347z"/>
<path d="M8013 6105 c-21 -15 -21 -16 -5 -45 30 -53 69 -29 46 28 -16 37 -14
36 -41 17z"/>
<path d="M8677 6084 c-16 -32 -16 -34 4 -45 11 -6 22 -9 23 -7 16 22 36 54 36
59 0 3 -11 11 -24 17 -21 9 -25 7 -39 -24z"/>
<path d="M7941 6063 l-20 -18 24 -30 c23 -27 26 -28 41 -14 15 15 15 19 0 48
-19 36 -18 36 -45 14z"/>
<path d="M8206 6064 c-133 -32 -277 -124 -361 -231 -249 -318 -166 -783 178
-991 138 -84 329 -114 491 -77 239 53 436 244 496 481 41 159 19 340 -57 487
-51 98 -172 219 -270 270 -140 73 -329 97 -477 61z m266 -135 c238 -49 418
-270 418 -514 0 -302 -263 -546 -563 -522 -313 25 -538 321 -473 624 60 287
336 471 618 412z"/>
<path d="M8290 5904 c-55 -10 -148 -48 -198 -81 -152 -101 -240 -297 -212
-477 27 -181 148 -328 325 -396 83 -32 233 -33 319 -1 175 63 299 213 328 394
36 231 -104 460 -328 537 -58 20 -184 33 -234 24z m271 -76 c95 -47 177 -130
222 -225 31 -65 32 -74 32 -189 0 -118 -1 -121 -37 -195 -47 -95 -130 -177
-225 -222 -65 -30 -74 -32 -188 -32 -114 0 -123 2 -187 32 -164 77 -268 239
-268 417 0 199 118 365 312 437 43 16 73 19 159 17 99 -3 110 -6 180 -40z"/>
<path d="M8746 6048 c-17 -28 -17 -31 -1 -46 15 -16 18 -15 40 12 25 32 25 40
-4 55 -14 8 -21 4 -35 -21z"/>
<path d="M7875 6015 c-19 -15 -19 -16 6 -41 16 -16 31 -23 42 -18 21 8 21 18
1 49 -19 29 -22 30 -49 10z"/>
<path d="M8806 6004 c-17 -24 -17 -27 -2 -42 15 -15 18 -14 44 11 26 27 27 28
8 43 -26 18 -28 18 -50 -12z"/>
<path d="M7817 5962 c-16 -17 -15 -20 11 -45 26 -25 29 -26 44 -11 15 16 15
19 -5 45 -24 34 -29 35 -50 11z"/>
<path d="M8867 5952 c-26 -28 -27 -29 -9 -45 17 -16 20 -15 45 11 26 28 27 29
9 45 -17 16 -20 15 -45 -11z"/>
<path d="M7766 5901 c-16 -18 -16 -20 10 -40 33 -26 36 -26 51 -2 11 17 9 23
-16 40 -28 20 -29 20 -45 2z"/>
<path d="M8920 5895 c-19 -20 -21 -27 -10 -40 16 -19 20 -19 48 5 19 16 21 23
12 40 -14 26 -22 25 -50 -5z"/>
<path d="M7717 5837 c-15 -22 -14 -25 14 -41 24 -14 33 -15 44 -6 21 18 19 26
-14 49 l-29 21 -15 -23z"/>
<path d="M8965 5836 c-28 -23 -29 -26 -13 -42 16 -16 18 -16 48 3 30 19 31 20
13 41 l-18 22 -30 -24z"/>
<path d="M7680 5771 c-15 -28 -13 -31 22 -46 25 -10 35 -10 40 -2 14 22 8 36
-22 52 -27 14 -30 14 -40 -4z"/>
<path d="M9010 5773 c-14 -9 -26 -17 -28 -19 -2 -1 1 -12 7 -23 11 -20 13 -20
45 -4 31 14 33 18 24 39 -13 28 -16 29 -48 7z"/>
<path d="M7644 5694 c-8 -30 -6 -32 33 -40 23 -4 32 -2 37 11 8 23 2 31 -34
43 -27 10 -30 9 -36 -14z"/>
<path d="M9043 5703 c-35 -14 -38 -20 -24 -42 6 -9 18 -11 40 -6 38 8 42 15
28 41 -11 19 -15 20 -44 7z"/>
<path d="M7618 5616 c-5 -27 7 -36 47 -36 14 0 25 7 28 19 4 15 -2 22 -26 30
-41 15 -44 14 -49 -13z"/>
<path d="M9059 5629 c-36 -13 -29 -49 10 -49 37 0 51 12 44 38 -6 24 -14 26
-54 11z"/>
<path d="M7600 5536 c0 -18 7 -25 31 -30 37 -7 49 -1 49 23 0 18 -26 31 -62
31 -12 0 -18 -8 -18 -24z"/>
<path d="M9068 5553 c-19 -5 -23 -20 -10 -41 6 -8 19 -10 40 -6 25 5 32 12 32
30 0 24 -17 29 -62 17z"/>
<path d="M7590 5455 c0 -22 4 -25 40 -25 36 0 40 3 40 25 0 23 -4 25 -40 25
-36 0 -40 -2 -40 -25z"/>
<path d="M9060 5455 c0 -22 4 -25 40 -25 36 0 40 3 40 25 0 23 -4 25 -40 25
-36 0 -40 -2 -40 -25z"/>
<path d="M7590 5375 c0 -22 4 -25 40 -25 36 0 40 3 40 25 0 23 -4 25 -40 25
-36 0 -40 -2 -40 -25z"/>
<path d="M9062 5378 c2 -19 10 -24 41 -26 34 -3 37 -1 37 22 0 24 -4 26 -41
26 -36 0 -40 -2 -37 -22z"/>
<path d="M7618 5323 c-11 -3 -18 -14 -18 -30 0 -23 3 -25 31 -19 17 3 36 6 41
6 5 0 8 10 6 23 -3 22 -25 30 -60 20z"/>
<path d="M9055 5309 c-8 -26 -8 -26 38 -34 35 -7 37 -6 37 18 0 17 -7 26 -22
31 -37 10 -46 7 -53 -15z"/>
<path d="M7644 5249 c-26 -7 -31 -13 -26 -34 5 -28 7 -29 49 -15 25 9 29 15
25 35 -5 27 -4 27 -48 14z"/>
<path d="M9043 5244 c-9 -23 4 -41 32 -48 32 -8 34 -7 37 24 3 20 -3 25 -30
31 -24 5 -35 3 -39 -7z"/>
<path d="M7673 5177 c-32 -10 -41 -29 -25 -53 8 -12 73 9 71 24 -3 30 -15 38
-46 29z"/>
<path d="M9016 5164 c-8 -20 -10 -17 30 -37 30 -16 32 -15 43 9 10 22 8 26
-15 34 -36 14 -51 12 -58 -6z"/>
<path d="M7698 5104 c-32 -17 -32 -18 -18 -45 11 -19 12 -19 40 -2 32 18 34
22 24 47 -7 19 -11 19 -46 0z"/>
<path d="M8989 5099 c-6 -11 -9 -22 -7 -23 22 -16 54 -36 59 -36 3 0 11 11 17
24 9 21 7 25 -24 39 -32 16 -34 16 -45 -4z"/>
<path d="M7728 5032 c-25 -17 -26 -18 -10 -40 l17 -22 30 24 c25 20 28 26 16
40 -17 20 -20 20 -53 -2z"/>
<path d="M8949 5034 c-11 -13 -8 -19 17 -39 31 -25 38 -24 54 5 9 16 5 22 -19
35 -37 18 -36 18 -52 -1z"/>
<path d="M7780 4973 c-14 -9 -27 -18 -29 -20 -2 -1 4 -12 13 -22 18 -20 18
-20 46 1 24 17 27 24 17 39 -14 23 -16 23 -47 2z"/>
<path d="M8910 4975 c-11 -13 -9 -20 10 -40 28 -30 36 -31 50 -5 9 17 7 24
-12 40 -28 24 -32 24 -48 5z"/>
<path d="M7827 4912 l-27 -29 20 -18 c11 -10 21 -16 23 -14 1 2 12 16 25 30
22 25 22 26 4 42 -17 16 -20 15 -45 -11z"/>
<path d="M8857 4922 c-16 -17 -15 -20 11 -45 28 -26 29 -27 45 -9 16 17 15 20
-11 45 -28 26 -29 27 -45 9z"/>
<path d="M7880 4855 c-13 -14 -22 -26 -19 -28 2 -1 12 -9 21 -16 16 -12 21
-10 38 10 24 29 25 45 4 53 -21 8 -17 9 -44 -19z"/>
<path d="M8802 4868 c-8 -8 -7 -18 6 -40 19 -32 21 -33 47 -14 18 13 18 14 -1
39 -21 29 -34 33 -52 15z"/>
<path d="M7942 4811 c-21 -29 -20 -35 15 -55 19 -10 48 51 32 70 -16 20 -22
18 -47 -15z"/>
<path d="M8740 4825 c-10 -12 -8 -21 7 -45 18 -28 20 -29 41 -14 l22 15 -20
30 c-24 33 -32 35 -50 14z"/>
<path d="M8008 4771 c-17 -30 -15 -35 19 -55 17 -10 44 54 30 72 -15 19 -31
14 -49 -17z"/>
<path d="M8678 4789 c-16 -9 -16 -12 -1 -44 14 -30 19 -33 37 -23 12 6 23 12
24 14 5 4 -31 64 -38 64 -3 0 -13 -5 -22 -11z"/>
<path d="M8077 4736 c-14 -31 -14 -35 -1 -40 30 -11 42 -6 52 24 9 25 8 31 -8
40 -25 14 -24 14 -43 -24z"/>
<path d="M8613 4763 c-16 -6 -16 -23 -3 -57 8 -23 12 -25 34 -15 23 11 23 13
11 42 -14 33 -22 39 -42 30z"/>
<path d="M8548 4742 c-19 -4 -25 -46 -10 -69 9 -15 52 -6 52 11 -2 28 -26 62
-42 58z"/>
<path d="M8151 4708 c-13 -36 -13 -37 19 -40 19 -3 25 3 30 29 8 36 5 43 -21
43 -10 0 -21 -13 -28 -32z"/>
<path d="M8226 4699 c-9 -47 -8 -49 18 -49 35 0 52 62 20 74 -27 10 -31 7 -38
-25z"/>
<path d="M8462 4722 c-8 -6 -10 -19 -6 -40 5 -25 12 -32 30 -32 25 0 29 14 18
58 -7 23 -20 27 -42 14z"/>
<path d="M8307 4713 c-4 -3 -7 -21 -7 -40 0 -29 3 -33 25 -33 23 0 25 4 25 40
0 32 -4 40 -18 40 -10 0 -22 -3 -25 -7z"/>
<path d="M8380 4680 c0 -36 3 -40 25 -40 23 0 25 4 25 40 0 36 -2 40 -25 40
-22 0 -25 -4 -25 -40z"/>
</g>
</svg>
