<svg width="187" height="52" viewBox="0 0 187 52" fill="none" xmlns="http://www.w3.org/2000/svg">
<g clip-path="url(#clip0_498_2)">
<path d="M14.0337 11.4526L0.195312 40.5485H6.69265V40.5429C8.42279 38.3901 11.0683 37.011 14.0337 37.011C16.999 37.011 19.6418 38.3888 21.372 40.5429V40.5485H27.872L14.0337 11.4526ZM14.0337 32.404C12.5186 32.404 11.0683 32.6721 9.72418 33.1651L14.0337 22.6665L18.3432 33.1651C16.999 32.6721 15.5488 32.404 14.0337 32.404Z" fill="#E41B12"/>
<path d="M68.9002 17.0942H65.3145V35.9887H80.8058V33.0581H68.9002V17.0942Z" fill="#1F242B"/>
<path d="M78.0488 20.0276H85.8586V35.9887H89.4471V21.4387L87.4826 20.0276H97.2568V17.0942H78.0502V20.0276H78.0488Z" fill="#1F242B"/>
<path d="M104.152 20.0276H111.965V35.9887H115.553V21.4387L113.589 20.0276H123.363V17.0942H104.154V20.0276H104.152Z" fill="#1F242B"/>
<path d="M102.494 17.0942H98.9053V35.9887H102.494V17.0942Z" fill="#1F242B"/>
<path d="M141.295 27.3998C141.295 28.6581 141.052 29.7276 140.568 30.6151C140.083 31.4998 139.365 32.1762 138.418 32.6373C137.471 33.1012 136.315 33.3317 134.955 33.3317C133.594 33.3317 132.402 33.1012 131.46 32.6373C130.516 32.1762 129.802 31.4998 129.323 30.6151C128.842 29.7303 128.602 28.6581 128.602 27.3998V17.0942H125.014V27.5317C125.014 29.3901 125.412 30.9776 126.217 32.2915C127.018 33.6053 128.161 34.6053 129.643 35.297C131.125 35.9859 132.895 36.3317 134.959 36.3317C137.023 36.3317 138.782 35.9859 140.269 35.2915C141.754 34.597 142.897 33.597 143.695 32.2859C144.491 30.9776 144.89 29.3928 144.89 27.5345V17.0942H141.302V27.3998H141.296H141.295Z" fill="#1F242B"/>
<path d="M163.343 18.1957C161.796 17.4638 159.909 17.0957 157.683 17.0957H147.598V35.9901H157.683C159.911 35.9901 161.796 35.6207 163.343 34.8776C164.889 34.1346 166.068 33.0568 166.877 31.6429C167.687 30.2304 168.093 28.5138 168.093 26.4971V26.4707C168.093 24.4888 167.689 22.7971 166.877 21.3971C166.068 19.9971 164.889 18.9304 163.343 18.1957ZM164.441 26.5499C164.441 27.9735 164.173 29.1665 163.635 30.1304C163.097 31.0957 162.311 31.8249 161.276 32.3235C160.241 32.8221 158.966 33.0693 157.449 33.0693H151.183V20.0151H157.449C158.982 20.0151 160.268 20.2665 161.304 20.7693C162.339 21.2707 163.122 22.0054 163.649 22.9679C164.178 23.9332 164.441 25.1179 164.441 26.5235V26.5499Z" fill="#1F242B"/>
<path d="M173.73 27.7137V33.1359H186.805V35.9887H170.142V17.0942H186.805V19.9498H173.73V27.7137Z" fill="#1F242B"/>
<path d="M175.038 27.714H185.934V25.0293H176.54L175.036 27.714H175.038Z" fill="#1F242B"/>
<path d="M54.8276 17.0942H50.6298L41.5049 35.9887H45.3002L47.6079 31.0915L48.8569 28.447L52.7087 20.2762H52.7749L56.6129 28.447L57.8564 31.0915L60.1559 35.9887H63.9512L54.8263 17.0942H54.8276Z" fill="#1F242B"/>
</g>
<defs>
<clipPath id="clip0_498_2">
<rect width="187" height="30" fill="white" transform="translate(0 11)"/>
</clipPath>
</defs>
</svg>
