<svg width="36" height="36" viewBox="0 0 36 36" fill="none" xmlns="http://www.w3.org/2000/svg">
<path fill-rule="evenodd" clip-rule="evenodd" d="M3.10403 7.51258C3 8.06393 3 8.72582 3 10.0496V20.625C3 26.2819 3 29.1103 4.75736 30.8676C6.51472 32.625 9.34314 32.625 15 32.625H21C26.6569 32.625 29.4853 32.625 31.2426 30.8676C33 29.1103 33 26.2819 33 20.625V17.3219C33 13.3733 33 11.399 31.8458 10.1157C31.7396 9.9977 31.6273 9.88536 31.5093 9.7792C30.226 8.625 28.2517 8.625 24.3031 8.625H23.7426C22.0121 8.625 21.1468 8.625 20.3405 8.39516C19.8976 8.26891 19.4707 8.09207 19.0682 7.86814C18.3355 7.4605 17.7237 6.84867 16.5 5.625L15.6746 4.79962C15.2645 4.38949 15.0594 4.18442 14.8439 4.00577C13.9148 3.23555 12.775 2.76343 11.5734 2.65106C11.2946 2.625 11.0046 2.625 10.4246 2.625C9.10082 2.625 8.43893 2.625 7.88758 2.72903C5.46046 3.18696 3.56196 5.08546 3.10403 7.51258ZM18 16.5C18.6213 16.5 19.125 17.0037 19.125 17.625V19.5H21C21.6213 19.5 22.125 20.0037 22.125 20.625C22.125 21.2463 21.6213 21.75 21 21.75H19.125V23.625C19.125 24.2463 18.6213 24.75 18 24.75C17.3787 24.75 16.875 24.2463 16.875 23.625V21.75H15C14.3787 21.75 13.875 21.2463 13.875 20.625C13.875 20.0037 14.3787 19.5 15 19.5H16.875V17.625C16.875 17.0037 17.3787 16.5 18 16.5Z" fill="#E41B12"/>
</svg>
