<svg width="114" height="32" viewBox="0 0 114 32" fill="none" xmlns="http://www.w3.org/2000/svg">
<g clip-path="url(#clip0_496_1113)">
<path d="M8.48876 6.97656L0.0410156 25.0242H4.00736V25.0207C5.06354 23.6854 6.67853 22.8299 8.48876 22.8299C10.299 22.8299 11.9123 23.6845 12.9685 25.0207V25.0242H16.9365L8.48876 6.97656ZM8.48876 19.9723C7.56386 19.9723 6.67853 20.1386 5.85799 20.4444L8.48876 13.9323L11.1195 20.4444C10.299 20.1386 9.41365 19.9723 8.48876 19.9723Z" fill="#E41B12"/>
<path d="M41.9829 10.4756H39.7939V22.1955H49.2507V20.3777H41.9829V10.4756Z" fill="#1F242B"/>
<path d="M47.5674 12.2951H52.3349V22.1955H54.5255V13.1704L53.3263 12.2951H59.2931V10.4756H47.5682V12.2951H47.5674Z" fill="#1F242B"/>
<path d="M63.5029 12.2951H68.2721V22.1955H70.4628V13.1704L69.2635 12.2951H75.2303V10.4756H63.5038V12.2951H63.5029Z" fill="#1F242B"/>
<path d="M62.4904 10.4756H60.2998V22.1955H62.4904V10.4756Z" fill="#1F242B"/>
<path d="M86.1763 16.8679C86.1763 17.6485 86.0282 18.3118 85.7328 18.8623C85.4366 19.4111 84.9981 19.8306 84.4199 20.1167C83.8418 20.4044 83.1365 20.5474 82.3059 20.5474C81.4753 20.5474 80.7473 20.4044 80.1725 20.1167C79.596 19.8306 79.1601 19.4111 78.8681 18.8623C78.5744 18.3135 78.4279 17.6485 78.4279 16.8679V10.4756H76.2373V16.9498C76.2373 18.1025 76.4805 19.0872 76.972 19.9021C77.461 20.7171 78.1586 21.3374 79.0633 21.7664C79.968 22.1937 81.0486 22.4083 82.3084 22.4083C83.5683 22.4083 84.6421 22.1937 85.5502 21.763C86.4566 21.3322 87.1542 20.712 87.6415 19.8987C88.1271 19.0872 88.3712 18.1042 88.3712 16.9515V10.4756H86.1805V16.8679H86.1772H86.1763Z" fill="#1F242B"/>
<path d="M99.6361 11.1589C98.6918 10.7049 97.5397 10.4766 96.1814 10.4766H90.0244V22.1964H96.1814C97.5414 22.1964 98.6918 21.9673 99.6361 21.5064C100.58 21.0455 101.3 20.3769 101.794 19.4999C102.288 18.6238 102.536 17.559 102.536 16.3081V16.2917C102.536 15.0623 102.29 14.013 101.794 13.1446C101.3 12.2762 100.58 11.6146 99.6361 11.1589ZM100.307 16.3408C100.307 17.2238 100.143 17.9639 99.8145 18.5618C99.4863 19.1605 99.0066 19.6128 98.3745 19.9221C97.7425 20.2314 96.964 20.3847 96.0383 20.3847H92.2134V12.2874H96.0383C96.9741 12.2874 97.7593 12.4434 98.3914 12.7552C99.0234 13.0662 99.5014 13.522 99.8229 14.119C100.146 14.7177 100.307 15.4526 100.307 16.3244V16.3408Z" fill="#1F242B"/>
<path d="M105.977 17.0626V20.4259H113.958V22.1955H103.786V10.4756H113.958V12.2468H105.977V17.0626Z" fill="#1F242B"/>
<path d="M106.775 17.0627H113.427V15.3975H107.693L106.774 17.0627H106.775Z" fill="#1F242B"/>
<path d="M33.3918 10.4756H30.8292L25.2588 22.1955H27.5756L28.9844 19.1578L29.7469 17.5175L32.0983 12.4493H32.1387L34.4816 17.5175L35.2407 19.1578L36.6445 22.1955H38.9613L33.3909 10.4756H33.3918Z" fill="#1F242B"/>
</g>
<defs>
<clipPath id="clip0_496_1113">
<rect width="114" height="18" fill="white" transform="translate(0 7)"/>
</clipPath>
</defs>
</svg>
